<svg width="208" height="32" viewBox="0 0 208 32" fill="none" xmlns="http://www.w3.org/2000/svg">
<path d="M32 32H0V0H32V32ZM5.41113 20.3467V24.7871H26.5V20.3467H5.41113ZM12.4404 6.82422L13.3428 12.2646L10.2461 8.80371H5.41016V13.5518L15.9648 18.4229L26.4824 13.5518V8.80371H21.6475L18.5957 12.2168L19.4893 6.82422L15.9648 4.25195L12.4404 6.82422Z" fill="white"/>
<path d="M58.8595 31.9438C56.1091 31.9438 53.6881 31.3135 51.5967 30.0529C49.5052 28.7636 47.8722 26.93 46.6975 24.5521C45.5229 22.1741 44.9355 19.3378 44.9355 16.043C44.9355 12.7769 45.5085 9.95487 46.6545 7.57691C47.8292 5.17031 49.4623 3.32238 51.5537 2.03313C53.6452 0.715226 56.0947 0.0562744 58.9024 0.0562744C62.6843 0.0562744 65.6209 1.00173 67.7123 2.89263C69.8038 4.78353 71.1647 7.40501 71.795 10.7571L66.9388 11.0149C66.5377 8.92346 65.6782 7.29041 64.3603 6.11576C63.0424 4.91246 61.2231 4.31081 58.9024 4.31081C57.0402 4.31081 55.4215 4.78353 54.0463 5.72898C52.6997 6.67443 51.6397 8.02099 50.8661 9.76864C50.1212 11.5163 49.7488 13.6077 49.7488 16.043C49.7488 18.4783 50.1212 20.5697 50.8661 22.3174C51.6397 24.065 52.714 25.3972 54.0892 26.314C55.4644 27.2308 57.0545 27.6892 58.8595 27.6892C61.3234 27.6892 63.2286 27.0446 64.5752 25.7554C65.9504 24.4375 66.8099 22.6325 67.1537 20.3405L72.0098 20.5984C71.6374 22.919 70.8925 24.9245 69.7751 26.6149C68.6578 28.3052 67.1823 29.6231 65.3487 30.5686C63.5151 31.4854 61.352 31.9438 58.8595 31.9438Z" fill="white"/>
<path d="M83.2008 31.2562V19.0083L72.5 0.743874H77.8289L85.5215 14.367L93.257 0.743874H98.5859L87.8421 19.0083V31.2562H83.2008Z" fill="white"/>
<path d="M112.156 31.9438C109.262 31.9438 106.784 31.2705 104.721 29.924C102.658 28.5487 101.082 26.6722 99.9937 24.2942C98.905 21.8876 98.3606 19.1372 98.3606 16.043C98.3606 12.9774 98.905 10.2414 99.9937 7.83476C101.111 5.42816 102.715 3.53726 104.807 2.16205C106.898 0.7582 109.405 0.0562744 112.328 0.0562744C114.82 0.0562744 116.926 0.50035 118.645 1.3885C120.393 2.27665 121.768 3.49428 122.77 5.04138C123.802 6.58848 124.518 8.35046 124.919 10.3273L120.063 10.5852C119.719 8.72291 118.946 7.21879 117.742 6.07278C116.539 4.89813 114.734 4.31081 112.328 4.31081C110.207 4.31081 108.474 4.84083 107.128 5.90088C105.781 6.96094 104.778 8.37911 104.119 10.1554C103.489 11.9317 103.174 13.8942 103.174 16.043C103.174 18.2777 103.489 20.2689 104.119 22.0165C104.778 23.7642 105.781 25.1537 107.128 26.1851C108.503 27.1879 110.25 27.6892 112.37 27.6892C114.032 27.6892 115.465 27.3311 116.668 26.6149C117.871 25.8986 118.802 24.9245 119.461 23.6926C120.149 22.4606 120.521 21.0997 120.579 19.6099H112.413V15.6992H125.005V31.2562H121.825L121.524 24.3802L122.126 24.8959C121.811 26.2711 121.166 27.4887 120.192 28.5488C119.218 29.6088 118.029 30.4397 116.625 31.0413C115.25 31.643 113.76 31.9438 112.156 31.9438Z" fill="white"/>
<path d="M130.802 31.2562V0.743874H150.657V4.99841H135.443V13.8942H150.141V18.0199H135.443V27.0016H151V31.2562H130.802Z" fill="white"/>
<path d="M156.612 31.2562V0.743874H162.5L176.596 25.6264V0.743874H181.237V31.2562H175.135L161.254 6.93228V31.2562H156.612Z" fill="white"/>
<path d="M193.269 31.2562V4.99841H183.901V0.743874H207.279V4.99841H197.911V31.2562H193.269Z" fill="white"/>
</svg>
